<?xml version="1.0" encoding="utf-8"?>
<!-- Generator: Adobe Illustrator 16.0.0, SVG Export Plug-In . SVG Version: 6.00 Build 0)  -->
<!DOCTYPE svg PUBLIC "-//W3C//DTD SVG 1.1//EN" "http://www.w3.org/Graphics/SVG/1.1/DTD/svg11.dtd">
<svg version="1.1" id="Mode_Isolation" xmlns="http://www.w3.org/2000/svg" xmlns:xlink="http://www.w3.org/1999/xlink" x="0px"
	 y="0px" viewBox="13.14 297.445 225 243" enable-background="new 13.14 297.445 225 243"
	 xml:space="preserve">
<g>
	<path fill="#E02B36" d="M181.933,502.47c0,0,20.975-5.813,29.531-22.834c1.023-2.093,2.791-25.672-50.971,27.066
		C159.796,509.679,181.933,502.47,181.933,502.47z"/>
	<path fill="#FFFFFF" d="M161.935,509.492L161.935,509.492c-0.837,0-2.046-0.232-2.79-1.162c-0.419-0.559-0.558-1.303-0.419-2
		l0.14-0.559l0.372-0.372c23.439-22.974,39.577-34.646,47.901-34.646c3.116,0,4.697,1.488,5.441,2.79
		c1.535,2.512,1.069,5.767,0.512,6.93c-8.836,17.579-29.811,23.672-30.694,23.904C180.956,504.842,166.911,509.492,161.935,509.492z
		 M207.139,474.38c-3.999,0-14.835,4.093-42.553,30.881c4.976-0.884,13.394-3.441,16.835-4.558
		c0.279-0.094,20.37-5.86,28.462-21.951c0.14-0.419,0.372-2.325-0.419-3.441C209.139,474.938,208.581,474.38,207.139,474.38z"/>
</g>
<g>
	<path fill="#E02B36" d="M192.583,508.842c0,0,20.974-5.813,29.531-22.835c1.022-2.093,2.79-25.672-50.971,27.066
		C170.446,516.05,192.583,508.842,192.583,508.842z"/>
	<path fill="#FFFFFF" d="M172.585,514.608L172.585,514.608c-0.837,0-2.047,0.418-2.79-0.512c-0.419-0.559-0.559-0.977-0.419-1.675
		l0.14-0.372l0.372-0.325c23.438-22.974,39.576-34.601,47.901-34.601c3.116,0,4.697,1.535,5.441,2.79
		c1.534,2.512,1.069,5.813,0.512,6.93c-8.837,17.533-29.811,23.067-30.694,23.3C191.56,510.608,177.561,514.608,172.585,514.608z
		 M217.789,480.798c-4,0-14.836,4.093-42.554,30.881c4.977-0.884,13.395-3.442,16.836-4.559c0.278-0.093,20.369-5.859,28.462-21.95
		c0.139-0.419,0.372-2.325-0.419-3.441C219.789,481.31,219.231,480.798,217.789,480.798z"/>
</g>
<g>
	<path fill="#494949" d="M161.795,496.146c-0.046-4.093-2.465-13.533-8.882-23.3c-3.581-5.488-10.743-14.789-13.255-23.951
		c-3.859-14.323-7.068-16.37-8.185-17.719c-1.116-1.396-9.302-15.254-12.092-20.23c-2.791-4.976-2.744-3.441-6.418-0.744
		c-1.256,3.209-5.721,14.092-5.721,14.092s0.604,1.581-5.208,1.116c-5.953,1.628-6,0.651-9.348,5.813
		c-3.163,4.278-5.488,6.371-7.813,8.045c-0.697,1.256-1.953,2.512,0.697,6.977c0.232,0.837,0.651,7.022,11.348,9.115
		c2.697,4.231,4.278,6.604,1.907,11.208c-2.325,4.604-8.697,6.418-0.232,27.392c8.464,20.975,11.673,18.324,11.673,18.324
		l16.23,0.046c14.51,0.047,35.392-0.977,35.298-15.486V496.146z"/>
	<path fill="#FFFFFF" d="M116.685,407.69c0.744,0,1.441,0.884,2.743,3.255c2.791,4.977,10.976,18.882,12.092,20.23
		c1.116,1.396,4.325,3.396,8.186,17.719c2.465,9.162,9.673,18.463,13.254,23.951c6.371,9.767,8.836,19.207,8.883,23.3v0.65
		c0.093,14.231-20.091,15.487-34.554,15.487c-0.232,0-0.512,0-0.744,0l-16.231-0.047c0,0-0.139,0.093-0.418,0.093
		c-1.116,0-4.512-1.674-11.255-18.416c-8.464-20.975-2.093-22.788,0.232-27.393c2.325-4.604,0.791-6.93-1.906-11.208
		c-10.696-2.093-11.115-8.278-11.348-9.115c-2.651-4.418-1.396-5.72-0.697-6.976c2.325-1.721,4.65-3.768,7.813-8.046
		c3.349-5.162,3.396-4.186,9.348-5.813c0.791,0.047,1.442,0.094,2,0.094c3.674,0,3.209-1.21,3.209-1.21s4.465-10.882,5.721-14.091
		C114.964,408.807,115.848,407.69,116.685,407.69 M116.685,404.017c-1.86,0-3.116,1.022-4.372,2.046
		c-0.418,0.372-0.93,0.744-1.488,1.163c-0.558,0.418-0.977,0.977-1.256,1.581c-1.022,2.558-4.139,10.138-5.301,12.975
		c-0.094,0-0.187,0-0.279,0c-0.465,0-1.07-0.046-1.675-0.093c-0.093,0-0.186,0-0.325,0c-0.325,0-0.651,0.047-0.977,0.14
		c-1.023,0.279-1.86,0.465-2.604,0.651c-4.325,1.022-5.581,1.721-8.79,6.604c-2.837,3.813-4.836,5.627-6.976,7.162
		c-0.418,0.325-0.744,0.697-1.023,1.116c-0.046,0.093-0.093,0.14-0.139,0.232c-1.35,2.232-2.232,4.977,0.558,9.906
		c1.535,6.743,7.348,9.72,12.51,11.021c1.954,3.116,2.14,3.953,0.931,6.278c-0.279,0.512-0.697,1.069-1.163,1.721
		c-3.813,5.162-6.418,10.883,0.791,28.694c7.441,18.323,11.627,20.788,14.742,20.788c0.326,0,0.651-0.046,0.977-0.093l15.673,0.047
		h0.744c12.743,0,26.694-0.977,33.81-8.139c2.931-2.977,4.419-6.65,4.372-11.022v-0.65c-0.047-5.256-3.022-15.44-9.44-25.3
		c-0.651-0.977-1.396-2.046-2.187-3.209c-3.674-5.349-8.696-12.696-10.604-19.672c-3.627-13.44-6.976-17.021-8.557-18.742
		c-0.14-0.14-0.232-0.232-0.325-0.325c-1.023-1.35-8.79-14.464-11.72-19.719C121.288,406.76,119.754,404.017,116.685,404.017
		L116.685,404.017z"/>
</g>
<g>
	<path fill="#494949" d="M122.777,479.124c13.673-10.743,35.112-64.97,35.112-64.97c-0.325-0.046,1.396-2.697-2.325-12.277
		c-0.651-1.116-16.835-14.51-18.416-18.695c-0.047-0.14,0.046-0.233,0.232-0.279c1.534-0.186,5.906,0.884,15.021,3.953
		c-2.837-1.953-1.023-2.977-5.953-6.232c-0.14-0.093-0.093-0.279,0.093-0.326c4.604-0.325,17.905,4,17.905,4
		s15.719-9.72,18.463-9.022c4.883,1.209,6.046,1.767,13.301-4.837c5.859-5.348,11.859-9.534,13.998-10.975
		c0.559-0.372,1.396-0.326,2,0.046c1.721,1.116,5.022,4.186,8.558,12.277c-0.466,3.721-0.187,5.535-7.302,18.184
		c-3.069,5.441-11.44,15.905-16.138,38.46s-6.511,22.649-5.441,28.602c1.069,5.953,12.604,29.253,9.999,38.646
		c-1.396,4.977-5.349,7.349-7.627,11.58c-2.186,4-17.998,7.721-22.741,10.092c-6.418,3.209-8,3.396-8,3.396
		c-27.95,2.558-35.391,4.883-45.529-12.371l-0.325-0.558C111.662,497.634,113.569,486.379,122.777,479.124z"/>
	<path fill="#FFFFFF" d="M211.139,359.277c0.372,0,0.79,0.093,1.116,0.325c1.721,1.116,5.022,4.186,8.557,12.278
		c-0.465,3.721-0.186,5.534-7.301,18.184c-3.069,5.441-11.441,15.905-16.138,38.461c-4.697,22.556-6.512,22.648-5.441,28.601
		c1.069,5.953,12.603,29.253,9.999,38.647c-1.396,4.976-5.349,7.348-7.627,11.58c-2.187,3.999-17.998,7.72-22.742,10.092
		c-6.418,3.209-7.999,3.395-7.999,3.395c-9.813,0.884-17.114,1.768-22.928,1.768c-10.604,0-16.091-2.93-22.648-14.138l-0.325-0.559
		c-5.953-10.185-4.046-21.439,5.162-28.694c13.626-10.836,35.065-65.063,35.065-65.063c-0.325-0.046,1.396-2.697-2.325-12.277
		c-0.651-1.116-16.835-14.51-18.416-18.695c-0.047-0.14,0.046-0.233,0.232-0.279c0.14,0,0.278-0.046,0.418-0.046
		c1.814,0,6.232,1.116,14.604,4c-2.837-1.953-1.023-2.977-5.953-6.232c-0.14-0.093-0.093-0.279,0.093-0.326c0.187,0,0.372,0,0.559,0
		c5.022,0,17.394,4.046,17.394,4.046s14.695-9.069,18.137-9.069c0.14,0,0.232,0,0.326,0.046c1.674,0.418,2.883,0.744,4.092,0.744
		c2.279,0,4.419-1.256,9.209-5.581c5.859-5.349,11.858-9.534,13.998-10.976C210.488,359.324,210.813,359.277,211.139,359.277
		 M211.139,355.603c-1.069,0-2.093,0.326-2.977,0.884c-2.325,1.581-8.464,5.86-14.417,11.301c-4.232,3.86-5.767,4.651-6.743,4.651
		c-0.651,0-1.535-0.232-2.744-0.512l-0.512-0.14c-0.372-0.093-0.79-0.139-1.209-0.139c-3.627,0-12.696,5.116-18.649,8.743
		c-3.72-1.163-12.417-3.674-16.881-3.674c-0.279,0-0.559,0-0.838,0.047c-1.627,0.139-3.022,1.255-3.441,2.837
		c-0.046,0.186-0.093,0.372-0.093,0.511c-2.697-0.697-4.046-0.837-4.977-0.837c-0.325,0-0.604,0-0.883,0.046
		c-1.21,0.186-2.232,0.837-2.884,1.907c-0.604,1.023-0.697,2.232-0.279,3.349c1.209,3.116,6.093,7.906,15.301,16.184
		c1.302,1.163,2.744,2.465,3.395,3.116c1.116,2.977,2.279,6.836,1.86,9.394c0,0.094,0,0.14-0.046,0.233
		c-6,15.254-23.207,54.552-33.624,62.783c-10.65,8.371-13.022,21.485-6.046,33.392l0.325,0.558
		c6.977,11.952,13.487,15.952,25.812,15.952c4.604,0,9.952-0.512,16.742-1.163c2.046-0.186,4.186-0.419,6.511-0.604h0.046
		c1.488-0.14,4.744-1.488,9.255-3.721c1.303-0.65,4.046-1.581,6.883-2.511c9.209-3.116,15.394-5.396,17.44-9.069
		c0.744-1.395,1.767-2.604,2.883-3.859c1.86-2.187,4-4.697,5.069-8.465c2-7.115-1.953-18.509-6.883-31.577
		c-1.395-3.721-2.744-7.209-3.022-8.697c-0.466-2.604-0.326-3.395,1.069-8.696c0.977-3.674,2.418-9.208,4.372-18.463
		c3.813-18.323,10.092-28.322,13.812-34.275c0.744-1.163,1.396-2.186,1.907-3.116c6.65-11.766,7.255-14.789,7.674-18.789
		c0.046-0.279,0.046-0.512,0.093-0.791c0.093-0.651,0-1.302-0.279-1.907c-3.721-8.558-7.44-12.278-9.905-13.859
		C213.324,355.929,212.208,355.603,211.139,355.603L211.139,355.603z"/>
</g>
<g>
	<path fill="#E02B36" d="M79.759,486.751c1.767,3.209,3.674,6.231,6.278,7.395C83.851,491.773,81.758,489.309,79.759,486.751z
		 M72.969,475.822c0,0,0-0.047-0.047-0.047c-5.674-8.929-10.092-18.742-13.021-29.159c2.883,11.254,7.534,21.812,13.673,31.392
		c0,0,0,0.046,0.046,0.046c0.931,1.488,1.907,2.931,2.931,4.372c1.022,1.488,2.093,2.93,3.209,4.325
		c-1.303-2.372-2.512-4.79-3.907-6.65C74.829,478.798,73.852,477.356,72.969,475.822z"/>
	<path fill="#FFFFFF" d="M86.037,496.006c-0.233,0-0.512-0.047-0.744-0.14c-3.163-1.396-5.302-4.883-7.069-8.046
		c-0.977-1.209-1.953-2.558-3.162-4.278c-1.163-1.674-2.14-3.116-2.977-4.465l0,0l-0.047-0.046
		c-6.278-9.906-10.976-20.603-13.858-31.903c-0.232-0.977,0.325-1.954,1.302-2.232c0.977-0.279,1.953,0.325,2.232,1.256
		c2.79,10.092,7.115,19.765,12.789,28.647l0.047,0.047c0,0,0,0.046,0.046,0.046c0.884,1.488,1.814,2.884,2.791,4.14
		c1.209,1.627,2.325,3.627,3.395,5.58c0.187,0.372,0.419,0.791,0.604,1.163c1.953,2.465,4,4.883,6.093,7.162
		c0.604,0.65,0.651,1.581,0.14,2.325C87.199,495.727,86.642,496.006,86.037,496.006z"/>
</g>
<g>
	<path fill="#E02B36" d="M219.742,500.47c-7.999,9.022-36.554,23.998-65.108,29.438c-0.372,0.094-0.744,0.14-1.116,0.233
		c-5.023,0.65-10.139,1.022-15.348,1.022c-43.762,0-81.805-23.765-101.244-58.69c-0.046-0.093-0.093-0.187-0.14-0.279
		c-8.789-15.766-13.766-33.764-13.766-52.924c0-61.761,51.529-111.848,115.104-111.848c5.674,0,11.254,0.372,16.695,1.163
		c-34.926,4.93-64.783,25.113-82.13,53.389c-10.324,16.742-16.23,36.368-16.23,57.296c0,9.348,1.162,18.416,3.395,27.113
		c0,0.093,0.047,0.139,0.047,0.232c2.883,11.254,7.534,21.812,13.673,31.392c0,0,0,0.046,0.046,0.046
		c0.931,1.488,1.907,2.931,2.931,4.372c1.022,1.488,2.093,2.93,3.209,4.325c1.767,3.209,3.674,6.231,6.278,7.395
		c0,0,1.022-17.114,34.786-4.465c13.72,3.162,20.323,4.232,48.228-8.139c7.395-4.511,14.51-3.162,7.115,10.65
		c-4.65,7.115-11.72,14.557-22.044,18.323c21.067-5.534,61.295-18.695,63.202-19.254
		C220.766,489.309,226.114,493.309,219.742,500.47z"/>
	<path fill="#FFFFFF" d="M138.124,532.979c-42.972,0-82.363-22.835-102.872-59.621c0,0-0.047-0.094-0.093-0.187
		c0-0.047-0.047-0.093-0.047-0.093c-9.068-16.417-13.905-35.02-13.905-53.808c0-62.691,52.459-113.708,116.917-113.708
		c5.72,0,11.44,0.418,16.975,1.209c0.884,0.14,1.581,0.884,1.581,1.814s-0.651,1.674-1.581,1.813
		c-33.811,4.791-63.249,23.951-80.828,52.552c-10.464,16.975-15.951,36.461-15.951,56.365c0,9.022,1.116,17.998,3.348,26.648
		l0.047,0.279c2.837,10.882,7.348,21.253,13.44,30.833l0.047,0.047c0.837,1.302,1.767,2.697,2.883,4.325
		c1.256,1.721,2.232,3.069,3.162,4.278c0.047,0.093,0.14,0.14,0.187,0.232c1.069,1.907,2.232,3.953,3.627,5.302
		c1.35-3.209,5.023-7.999,15.022-7.999c5.767,0,12.929,1.581,21.346,4.744c5.069,1.162,9.022,1.999,13.348,1.999
		c7.813,0,17.207-2.79,33.531-10.045c2.697-1.628,5.348-2.512,7.487-2.512c2.093,0,3.721,0.838,4.65,2.372
		c1.628,2.697,0.791,7.069-2.512,13.301c-0.046,0.047-0.046,0.093-0.093,0.14c-3.022,4.604-6.418,8.464-10.185,11.627
		c16.37-4.791,35.902-11.069,44.507-13.813c2.65-0.837,3.999-1.303,4.558-1.442c0.79-0.418,1.674-0.65,2.604-0.65
		c2.14,0,4,1.162,4.837,3.069c0.697,1.581,1.256,4.93-2.977,9.673c-8.789,9.906-38.135,24.695-66.132,30.043l-0.186,0.047
		c-0.326,0.047-0.651,0.14-0.977,0.186C148.588,532.606,143.332,532.979,138.124,532.979z M138.124,309.236
		c-62.458,0-113.243,49.343-113.243,110.034c0,18.184,4.65,36.182,13.44,52.04c0,0,0.047,0.093,0.093,0.187
		c0,0.046,0.047,0.093,0.047,0.093c19.858,35.577,58.04,57.714,99.663,57.714c5.068,0,10.138-0.325,15.114-0.977
		c0.232-0.046,0.558-0.093,0.837-0.14l0.187-0.046c28.694-5.488,56.645-20.51,64.085-28.881c2.419-2.743,2.791-4.743,2.372-5.767
		c-0.279-0.651-0.977-0.93-1.488-0.93c-0.325,0-0.651,0.093-0.977,0.278c-0.14,0.094-0.279,0.14-0.419,0.187
		c-0.325,0.093-2.139,0.697-4.696,1.488c-11.302,3.627-41.391,13.254-58.552,17.766c-0.93,0.232-1.907-0.279-2.232-1.21
		c-0.279-0.93,0.187-1.953,1.116-2.278c8.324-3.023,15.394-8.883,21.114-17.533c3.72-7.022,2.79-9.255,2.558-9.627
		c-0.093-0.139-0.372-0.604-1.488-0.604c-1.488,0-3.534,0.744-5.674,2.047c-0.047,0.046-0.14,0.093-0.232,0.093
		c-16.882,7.487-26.741,10.371-35.112,10.371c-4.744,0-8.93-0.884-14.277-2.093c-0.093,0-0.14-0.047-0.232-0.047
		c-8.046-3.022-14.836-4.558-20.138-4.558c-11.44,0-12.138,7.115-12.138,7.441c-0.047,0.604-0.372,1.116-0.884,1.441
		s-1.116,0.372-1.674,0.093c-3.163-1.395-5.302-4.883-7.069-8.045c-0.977-1.21-1.953-2.651-3.162-4.419
		c-1.163-1.674-2.14-3.162-2.977-4.558l0,0c0,0-0.047,0.094-0.047,0.047c-6.278-9.906-10.976-20.556-13.858-31.856l-0.047-0.232
		c-2.278-8.93-3.441-18.185-3.441-27.532c0-20.556,5.721-40.693,16.51-58.272c15.905-25.857,41.204-44.227,70.643-51.715
		C140.542,309.236,139.333,309.236,138.124,309.236z"/>
</g>
<g>
	<path fill="#E02B36" d="M86.037,494.146c-2.604-1.163-4.512-4.186-6.278-7.395C81.758,489.309,83.851,491.773,86.037,494.146z"/>
	<path fill="#FFFFFF" d="M86.037,496.471c-0.233,0-0.512-0.279-0.744-0.372c-3.209-1.396-5.396-5.069-7.162-8.324
		c-0.465-0.838-0.187-1.954,0.604-2.465c0.79-0.512,1.86-0.372,2.465,0.372c1.906,2.465,3.953,4.836,6.046,7.115
		c0.418,0.325,0.65,1.069,0.65,1.628C87.897,495.401,87.107,496.471,86.037,496.471C86.083,496.471,86.083,496.471,86.037,496.471z"
		/>
</g>
<g opacity="0.44">
	<path fill="#E02B36" d="M154.82,529.955c-0.465,0.047-0.884,0.14-1.349,0.187c0.372-0.047,0.744-0.14,1.116-0.232
		C154.68,529.955,154.773,529.955,154.82,529.955z"/>
	<path fill="#FFFFFF" d="M153.471,531.955c-0.884,0-1.674-0.651-1.813-1.581c-0.14-0.977,0.512-1.907,1.488-2.047
		c0.278-0.046,0.604-0.093,0.884-0.186l0.186-0.047c0.232-0.046,0.419-0.046,0.651,0l0.232,0.047c0.884,0.14,1.534,0.93,1.534,1.813
		s-0.697,1.674-1.581,1.768c-0.465,0.046-0.93,0.14-1.395,0.186C153.657,531.955,153.564,531.955,153.471,531.955z"/>
</g>
</svg>
